# xmcd CD database file
#
# Track frame offsets:
#	150
#	60897
#	120570
#	178071
#
# Disc length: 3216 seconds
#
# Revision: 0
# Processed by: cddbd v1.5PL3 Copyright (c) Steve Scherf et al.
# Submitted via: CDex 1.51
#
DISCID=2a0c8e04
DTITLE=Phil Thornton - Bathtime Bliss
DYEAR=2002
DGENRE=New Age
TTITLE0=Through A Lover's Eyes
TTITLE1=Tonight In A Dream
TTITLE2=The Shining Ones
TTITLE3=From Another Sky
EXTD=YEAR: 2002
EXTT0=
EXTT1=
EXTT2=
EXTT3=
PLAYORDER=
